<svg height="101" viewBox="0 0 582 101" width="582" xmlns="http://www.w3.org/2000/svg" xmlns:xlink="http://www.w3.org/1999/xlink"><linearGradient id="a" x1="50%" x2="50%" y1="0%" y2="100%"><stop offset="0" stop-color="#4f3ad5"/><stop offset="1" stop-color="#1b9aaa"/></linearGradient><path d="m21.7079867 66h-10.8575759c-.0339665-12.2419474-.0905486-21.279996-.1697467-27.1142578h-9.9150391v-10.6083984h9.984375c0-.3697936-.0115559-.8551403-.034668-1.4560547-.0231121-.6009145-.0346679-1.1324847-.0346679-1.5947266 0-2.3574337.1155587-4.4952704.3466797-6.4135742.2311209-1.9183039.7626911-4.0676964 1.5947265-6.4482422.8320354-2.38054576 1.976067-4.3681561 3.4321289-5.96289063 1.456062-1.59473454 3.5361193-2.9467718 6.2402344-4.05615235 2.7041151-1.10938054 5.8819804-1.66406249 9.5336914-1.66406249 8.4590267 0 15.1036542.87824642 19.934082 2.63476562s8.6091986 5.33884015 11.3364258 10.74707035l-8.7363281 5.3388672c-1.710295-3.3743659-3.9983581-5.5815378-6.8642578-6.6215821-2.8658998-1.0400442-7.9042608-1.5600586-15.1152344-1.5600586-1.9876401 0-3.6632419.277341-5.0268555.8320313-1.3636136.5546902-2.426754 1.2249309-3.1894531 2.0107422-.7626991.7858112-1.3404928 1.8605075-1.7333984 3.2241211-.3929056 1.3636135-.635579 2.6232038-.7280274 3.7788085-.0924484 1.1556048-.1386719 2.6347567-.1386719 4.4375v2.7041016c1.5253983 0 4.6108167.0115559 9.2563477.034668s7.8233964.034668 9.5336914.034668c4.8073157.1386725 8.5283072.6009075 11.1630859 1.3867187l-2.0107421 10.1230469c-1.8027434-.6009145-4.0676947-.9013672-6.7949219-.9013672h-21.147461c.0603071 9.2872808.1075005 18.3253503.1415805 27.1142578zm.0245354 7c.027928 8.931961.041892 17.5986096.041892 26h-10.8857422c0-9.7040554-.0073225-18.3707152-.0219675-26zm66.4657201-71.48632812h16.2939458v15.60058592h-16.2939458zm15.3002788 64.48632812h-10.7934429v-26.4208984c-6.3327139 0-12.2955449.6471289-17.8886719 1.9414062l-2.0107421-9.8457031c8.3665783-1.941416 15.9010081-2.9121094 22.6035156-2.9121094h8.0429683zm.008717 7 .014246 11.4394531c.138673 2.6347788.901361 4.2872688 2.288086 4.9575196 1.386726.6702507 3.882795 1.0053711 7.488282 1.0053711 3.605486 0 7.257143-.4275674 10.955078-1.2827149s6.656239-2.1147378 8.875-3.7788086l4.714843 7.9042969c-2.819675 2.3112095-6.44822 4.0561464-10.885742 5.2348633-4.437522 1.1787168-8.967425 1.7680665-13.589843 1.7680665-6.240266 0-10.978174-.8782466-14.2138677-2.6347658-4.2988496-2.3574336-6.4482422-6.6562187-6.4482422-12.8964843v-11.7167969zm73.465004-7h-10.82365l-.155428-54.9179688c-.323569 0-1.063145-.0115558-2.21875-.0346679s-2.126298-.034668-2.912109-.034668c-5.362006 0-9.753238.3928997-13.173828 1.1787109l-1.941407-9.91503901c5.593127-1.29427731 13.266228-1.94140625 23.019532-1.94140625h8.042968zm.017341 7 .027995 11.3007812c.138673 2.6347788.90136 4.2872688 2.288086 4.9575196 1.386726.6702507 3.882795 1.0053711 7.488281 1.0053711 3.605487 0 7.257143-.4275674 10.955078-1.2827149 3.697936-.8551475 6.656239-2.1147377 8.875-3.7788086l4.714844 7.9042969c-2.819675 2.3112095-6.44822 4.0561465-10.885742 5.2348633s-8.967425 1.7680664-13.589844 1.7680664c-6.240265 0-10.978174-.8782464-14.213867-2.6347656-4.29885-2.3574337-6.448242-6.6562188-6.448242-12.8964844l-.032768-11.578125zm52.861979-14.2148438c.046225-5.5469027 1.802718-10.2732552 5.269532-14.1791992s8.04294-5.8588867 13.728515-5.8588867c4.761092 0 8.747868 1.65249 11.96045 4.9575195 3.212581 3.3050296 5.096188 7.7309293 5.650879 13.2778321-9.660856 1.1093805-21.863859 1.710286-36.609376 1.8027343zm47.618296 7.2148438h-58.517546c-.037219-.9093845-.055828-1.8351657-.055828-2.7773438 0-10.3079942 2.611628-18.7206705 7.834961-25.2382812 5.223334-6.5176107 12.57287-9.7763672 22.048828-9.7763672 3.605487 0 6.8758.5084585 9.811036 1.5253906 2.935236 1.0169322 5.373525 2.3111901 7.314941 3.8828125 1.941416 1.5716225 3.651685 3.4783417 5.130859 5.7202149s2.61165 4.4374892 3.397461 6.586914c.785812 2.1494249 1.421385 4.4490438 1.906739 6.8989258.485354 2.4498821.797362 4.5299394.936035 6.2402344.138672 1.710295.208008 3.3974526.208008 5.0615234 0 .7647679-.005165 1.3900924-.015494 1.8759766zm-47.379008 7c.57164 4.1342906 2.167488 7.6469634 4.787568 10.5380859 3.351254 3.6979352 8.378059 5.546875 15.080566 5.546875 4.437523 0 8.181626-.9244699 11.232422-2.7734375 3.050797-1.8489675 5.454419-3.9983601 7.210938-6.4482422l8.52832 7.5576172c-1.016932 1.1093806-1.814287 1.9645153-2.39209 2.5654297-.577802.6009145-1.779613 1.6062755-3.605469 3.0161133-1.825855 1.4098378-3.617015 2.5192017-5.373535 3.328125-1.756519.8089233-4.067694 1.571611-6.933593 2.2880859-2.8659.716475-5.847316 1.0747071-8.944336 1.0747071-10.030649 0-17.669082-3.2818682-22.915528-9.8457032-3.612786-4.5199622-5.981643-10.1358187-7.106595-16.8476562zm82.270478-7h-10.816406v-19.9726562c0-.4160178-.023112-.8204733-.069336-1.213379-.046224-.3929056-.161783-.7858053-.34668-1.1787109s-.335123-.7395818-.450683-1.0400391c-.115561-.3004572-.346678-.6471334-.69336-1.040039-.346681-.3929056-.60091-.7049142-.762695-.9360352-.161785-.2311209-.496905-.5777971-1.005371-1.040039s-.878254-.7973623-1.109375-1.0053711c-.231121-.2080089-.658688-.5893527-1.282715-1.144043s-1.074706-.94759-1.352051-1.1787109l7.210938-9.7763672c.323569.2773451 1.005366.8204712 2.04541 1.6293945l2.184082 1.6987305c.416018.3235693 1.028479.8666954 1.837402 1.6293945.808924.7626991 1.444497 1.4329398 1.906739 2.0107422.462241.5778024.9707 1.3058224 1.52539 2.184082s1.040037 1.7796178 1.456055 2.7041016c3.143245-3.8366077 6.610007-6.5291264 10.40039-8.0776367 3.790384-1.5485104 8.458957-2.3227539 14.00586-2.3227539 5.500678 0 9.325673 1.7218252 11.475098 5.1655273 2.149424 3.4437021 3.224121 8.5629543 3.224121 15.3579102v.4160156h-10.816407c0-.4622419-.023111-1.2133737-.069336-2.253418-.046224-1.0400442-.080891-1.7680643-.104003-2.184082-.023113-.4160177-.092448-1.0053673-.208008-1.7680664-.115561-.7626991-.300455-1.2942693-.554688-1.5947266-.254233-.3004572-.589353-.6471334-1.005371-1.040039-.416018-.3929057-.947588-.6586908-1.594726-.7973633-.647139-.1386726-1.409827-.2080078-2.288086-.2080078-1.987641 0-3.859692.2311174-5.616211.6933593-1.75652.4622419-3.663239 1.282709-5.720215 2.4614258-2.056977 1.1787168-4.056143 3.0161008-5.997559 5.512207-1.941416 2.4961063-3.744132 5.5930805-5.408203 9.2910157zm0 7v26l-10.816406-.0693359v-25.9306641zm64.482422-14.2148438c.046224-5.5469027 1.802717-10.2732552 5.269531-14.1791992s8.042941-5.8588867 13.728516-5.8588867c4.761091 0 8.747868 1.65249 11.960449 4.9575195 3.212581 3.3050296 5.096189 7.7309293 5.650879 13.2778321-9.660856 1.1093805-21.863859 1.710286-36.609375 1.8027343zm47.618296 7.2148438h-58.517547c-.037218-.9093845-.055827-1.8351657-.055827-2.7773438 0-10.3079942 2.611627-18.7206705 7.834961-25.2382812 5.223333-6.5176107 12.572869-9.7763672 22.048828-9.7763672 3.605487 0 6.875799.5084585 9.811035 1.5253906 2.935236 1.0169322 5.373526 2.3111901 7.314942 3.8828125 1.941415 1.5716225 3.651685 3.4783417 5.130859 5.7202149s2.61165 4.4374892 3.397461 6.586914c.785811 2.1494249 1.421384 4.4490438 1.906738 6.8989258.485354 2.4498821.797363 4.5299394.936035 6.2402344.138673 1.710295.208008 3.3974526.208008 5.0615234 0 .7647679-.005164 1.3900924-.015493 1.8759766zm-47.379009 7c.571641 4.1342906 2.167489 7.6469634 4.787568 10.5380859 3.351254 3.6979352 8.378059 5.546875 15.080567 5.546875 4.437522 0 8.181625-.9244699 11.232422-2.7734375 3.050796-1.8489675 5.454418-3.9983601 7.210937-6.4482422l8.528321 7.5576172c-1.016933 1.1093806-1.814288 1.9645153-2.39209 2.5654297-.577803.6009145-1.779614 1.6062755-3.605469 3.0161133-1.825856 1.4098378-3.617016 2.5192017-5.373535 3.328125s-4.067694 1.571611-6.933594 2.2880859c-2.8659.716475-5.847315 1.0747071-8.944336 1.0747071-10.030649 0-17.669082-3.2818682-22.915527-9.8457032-3.612787-4.5199622-5.981644-10.1358187-7.106596-16.8476562zm72.945652-7h-11.056951c-.048216-1.1502671-.072324-2.3302799-.072324-3.5400391 0-6.2864897.739576-11.6368594 2.21875-16.0512695s3.721014-7.9273958 6.725586-10.5390625 6.552226-4.50683 10.643066-5.6855469c4.090841-1.1787168 8.955864-1.7680664 14.595215-1.7680664 6.378938 0 11.671529 1.6178224 15.87793 4.8535156 3.189469 2.4498821 5.824208 6.12465 7.904297 11.0244141l-10.677735 4.1601563c-.231121-.8320354-.450682-1.5369438-.658691-2.1147461-.208009-.5778024-.658688-1.3751577-1.352051-2.3920899-.693363-1.0169321-1.490718-1.8373992-2.39209-2.4614258-.901371-.6240265-2.184073-1.1902643-3.848144-1.6987304s-3.536123-.7626953-5.616211-.7626953c-7.71944 0-13.381818 1.8489398-16.987305 5.546875-3.605487 3.6979351-5.408203 9.6607661-5.408203 17.8886718 0 1.2219625.034954 2.4019742.104861 3.5400391zm.986165 7c.533023 2.3526685 1.163158 4.3168458 1.890419 5.8925781.832036 1.8027434 1.929844 3.3396747 3.293457 4.6108399 1.363614 1.2711652 2.63476 2.2303027 3.813477 2.8774414 1.178717.6471386 2.600089 1.1440412 4.26416 1.4907226 1.664071.3466815 2.992997.5546872 3.986817.6240235s2.207186.1040039 3.640136.1040039h.901368c5.038436 0 9.05988-.9129141 12.064453-2.7387696 3.004572-1.8258554 5.523752-4.4259271 7.557617-7.8002929l8.736328 6.3095703c-.092448.0924484-.496904.6586862-1.213379 1.6987305-.716475 1.0400442-1.386716 1.9067348-2.010742 2.6000976-.624027.6933629-1.513829 1.6409445-2.669434 2.8427735-1.155604 1.2018289-2.415195 2.2071899-3.778808 3.0161132-1.363614.8089233-2.935213 1.6178345-4.714844 2.4267578-1.779631.8089234-3.848133 1.4329406-6.205567 1.8720704-2.357433.4391298-4.853502.6586914-7.488281.6586914-4.576195 0-8.701642-.369788-12.376465-1.109375-3.674823-.7395871-7.01447-2.2187389-10.019043-4.4375-4.298849-3.3281417-7.338044-7.5691474-9.117675-12.7231446-.857548-2.4835473-1.50848-5.2219843-1.9528-8.215332zm130.985146-7h-68l68-34zm0 7v27l-54-27z" fill="url(#a)"/></svg>